<svg xmlns="http://www.w3.org/2000/svg" width="24" height="24" viewBox="0 0 24 24" fill="none" stroke-linecap="round" stroke-linejoin="round">
  <!-- White halo so the icon stays legible over both light parchment and dark ink. -->
  <g stroke="#ffffff" stroke-width="3.5">
    <path d="M3 6h18" />
    <path d="M19 6v14a2 2 0 0 1-2 2H7a2 2 0 0 1-2-2V6" />
    <path d="M8 6V4a2 2 0 0 1 2-2h4a2 2 0 0 1 2 2v2" />
    <path d="M10 11v6" />
    <path d="M14 11v6" />
  </g>
  <g stroke="#dc2626" stroke-width="2">
    <path d="M3 6h18" />
    <path d="M19 6v14a2 2 0 0 1-2 2H7a2 2 0 0 1-2-2V6" />
    <path d="M8 6V4a2 2 0 0 1 2-2h4a2 2 0 0 1 2 2v2" />
    <path d="M10 11v6" />
    <path d="M14 11v6" />
  </g>
</svg>
